<svg xmlns="http://www.w3.org/2000/svg" xmlns:xlink="http://www.w3.org/1999/xlink" width="128" height="128" viewBox="0 0 128 128">
  <defs>
    <style>
      .cls-1 {
        stroke: #303590;
        fill: url(#linear-gradient);
      }

      .cls-1, .cls-10, .cls-8, .cls-9 {
        stroke-linecap: round;
        stroke-linejoin: round;
      }

      .cls-1, .cls-8 {
        stroke-width: 4px;
      }

      .cls-1, .cls-10, .cls-11, .cls-12, .cls-13, .cls-2, .cls-3, .cls-4, .cls-5, .cls-6, .cls-7, .cls-9 {
        fill-rule: evenodd;
      }

      .cls-2 {
        fill: #303590;
        opacity: 0.2;
      }

      .cls-3 {
        opacity: 0.7;
      }

      .cls-11, .cls-4, .cls-5, .cls-8 {
        fill: #fff;
      }

      .cls-4 {
        opacity: 0.4;
      }

      .cls-10, .cls-13, .cls-5, .cls-8 {
        opacity: 0.5;
      }

      .cls-6 {
        opacity: 0.45;
      }

      .cls-8 {
        stroke: #5b5b5b;
      }

      .cls-10, .cls-9 {
        fill: #00b0ed;
        stroke: #003a65;
        stroke-width: 8px;
      }

      .cls-12, .cls-13 {
        fill: #003a65;
      }
    </style>
    <linearGradient id="linear-gradient" x1="19.187" x2="108.813" y2="128" gradientUnits="userSpaceOnUse">
      <stop offset="0.15" stop-color="#979797"/>
      <stop offset="0.359" stop-color="#d1d1d1"/>
      <stop offset="0.731" stop-color="#6c6c6c"/>
      <stop offset="0.847" stop-color="#efefef"/>
      <stop offset="0.85" stop-color="#efefef"/>
    </linearGradient>
  </defs>
  <path class="cls-1" d="M128,48V76H110.3a47.408,47.408,0,0,1-5.091,12.241L117.74,100.77l-16.971,16.97L88.241,105.212A47.516,47.516,0,0,1,76,110.3V128H52V110.3a47.516,47.516,0,0,1-12.241-5.091L27.231,117.74,10.26,100.77,22.788,88.241A47.492,47.492,0,0,1,17.7,76H0V48H20s2.788-.452,2.788-4.241L6.26,27.231,27.231,6.26,43.759,22.788C47.548,22.788,48,20,48,20V0H80V20s0.452,2.788,4.241,2.788L100.769,6.26,121.74,27.231,105.211,43.759C105.211,47.548,108,48,108,48h20ZM76.8,64A12.8,12.8,0,1,0,64,76.8,12.8,12.8,0,0,0,76.8,64Z"/>
  <path class="cls-2" d="M128,48V76H110.3a47.408,47.408,0,0,1-5.091,12.241L117.74,100.77l-16.971,16.97L88.241,105.212A47.516,47.516,0,0,1,76,110.3V128H52V110.3a47.516,47.516,0,0,1-12.241-5.091L27.231,117.74,10.26,100.77,22.788,88.241A47.492,47.492,0,0,1,17.7,76H0V48H20s2.788-.452,2.788-4.241L6.26,27.231,27.231,6.26,43.759,22.788C47.548,22.788,48,20,48,20V0H80V20s0.452,2.788,4.241,2.788L100.769,6.26,121.74,27.231,105.211,43.759C105.211,47.548,108,48,108,48h20ZM76.8,64A12.8,12.8,0,1,0,64,76.8,12.8,12.8,0,0,0,76.8,64Z"/>
  <path class="cls-3" d="M105.211,51.759l0.994-.994A3.929,3.929,0,0,0,108,52h20v4H108S105.211,55.548,105.211,51.759Zm-4.442-37.5L84.241,30.788C80.452,30.788,80,28,80,28V4H48V0H80V24s0.452,2.788,4.241,2.788L100.769,10.26,121.74,31.231l-2,2ZM48,28s-0.453,2.788-4.241,2.788L27.231,14.26,8.26,33.231l-2-2L27.231,10.26,43.759,26.788C47.547,26.788,48,24,48,24v4ZM21.795,50.765l0.994,0.994C22.788,55.548,20,56,20,56H0V52H20A3.929,3.929,0,0,0,21.795,50.765Zm0.994,45.476L12.26,106.77l-2-2L21.453,93.576C21.9,94.462,22.284,95.386,22.788,96.241Zm83.759-2.665L117.74,104.77l-2,2L105.211,96.241C105.715,95.386,106.1,94.462,106.547,93.577ZM64,84.8A12.548,12.548,0,0,1,51.4,70a12.748,12.748,0,0,0,25.2,0A12.548,12.548,0,0,1,64,84.8Z"/>
  <path class="cls-4" d="M105.211,51.759l0.994-.994A3.929,3.929,0,0,0,108,52h20v4H108S105.211,55.548,105.211,51.759Zm-4.442-37.5L84.241,30.788C80.452,30.788,80,28,80,28V4H48V0H80V24s0.452,2.788,4.241,2.788L100.769,10.26,121.74,31.231l-2,2ZM48,28s-0.453,2.788-4.241,2.788L27.231,14.26,8.26,33.231l-2-2L27.231,10.26,43.759,26.788C47.547,26.788,48,24,48,24v4ZM21.795,50.765l0.994,0.994C22.788,55.548,20,56,20,56H0V52H20A3.929,3.929,0,0,0,21.795,50.765Zm0.994,45.476L12.26,106.77l-2-2L21.453,93.576C21.9,94.462,22.284,95.386,22.788,96.241Zm83.759-2.665L117.74,104.77l-2,2L105.211,96.241C105.715,95.386,106.1,94.462,106.547,93.577ZM64,84.8A12.548,12.548,0,0,1,51.4,70a12.748,12.748,0,0,0,25.2,0A12.548,12.548,0,0,1,64,84.8Z"/>
  <path class="cls-5" d="M105.211,47.759l0.994-.994A3.929,3.929,0,0,0,108,48h20v4H108S105.211,51.548,105.211,47.759ZM80,20s0.452,2.788,4.241,2.788L100.769,6.26,121.74,27.231l-2,2L100.769,10.26,84.241,26.788C80.452,26.788,80,24,80,24M48,24s-0.453,2.788-4.241,2.788L27.231,10.26,8.26,29.231l-2-2L27.231,6.26,43.759,22.788C47.547,22.788,48,20,48,20v4ZM21.795,46.765l0.994,0.994C22.788,51.548,20,52,20,52H0V48H20A3.929,3.929,0,0,0,21.795,46.765Zm0.994,45.476L12.26,102.77l-2-2L21.453,89.576C21.9,90.462,22.284,91.386,22.788,92.241Zm83.759-2.665L117.74,100.77l-2,2L105.211,92.241C105.715,91.386,106.1,90.462,106.547,89.577ZM64,80.8A12.548,12.548,0,0,1,51.4,66a12.748,12.748,0,0,0,25.2,0A12.548,12.548,0,0,1,64,80.8Z"/>
  <path class="cls-6" d="M110.3,76a47.041,47.041,0,0,1-3.755,9.576l-1.336-1.335A47.408,47.408,0,0,0,110.3,72H128v4H110.3Zm-5.091-36.241L119.74,25.231l2,2L106.205,42.765A4.376,4.376,0,0,1,105.211,39.759ZM22.788,84.241l-1.335,1.335A47.05,47.05,0,0,1,17.7,76H0V72H17.7A47.492,47.492,0,0,0,22.788,84.241Zm4.442,29.5,12.528-12.528A47.516,47.516,0,0,0,52,106.3v4a47.516,47.516,0,0,1-12.241-5.091L27.231,117.74,10.26,100.77l2-2ZM76,128H52v-4H76v4ZM64,47.2A12.548,12.548,0,0,1,76.6,62a12.748,12.748,0,0,0-25.2,0A12.548,12.548,0,0,1,64,47.2ZM21.795,42.765L6.26,27.231l2-2L22.788,39.759A4.374,4.374,0,0,1,21.795,42.765ZM48,16V0h0V16h0Zm28,90.3a47.516,47.516,0,0,0,12.241-5.091l12.528,12.528L115.74,98.77l2,2-16.971,16.97L88.241,105.212A47.516,47.516,0,0,1,76,110.3v-4Z"/>
  <path class="cls-7" d="M110.3,80a47.041,47.041,0,0,1-3.755,9.576l-1.336-1.335A47.408,47.408,0,0,0,110.3,76H128v4H110.3Zm-5.091-36.241L119.74,29.231l2,2L106.205,46.765A4.376,4.376,0,0,1,105.211,43.759ZM22.788,88.241l-1.335,1.335A47.05,47.05,0,0,1,17.7,80H0V76H17.7A47.492,47.492,0,0,0,22.788,88.241Zm4.442,29.5,12.528-12.528A47.516,47.516,0,0,0,52,110.3v4a47.516,47.516,0,0,1-12.241-5.091L27.231,121.74,10.26,104.77l2-2ZM76,132H52v-4H76v4ZM64,51.2A12.548,12.548,0,0,1,76.6,66a12.748,12.748,0,0,0-25.2,0A12.548,12.548,0,0,1,64,51.2ZM21.795,46.765L6.26,31.231l2-2L22.788,43.759A4.374,4.374,0,0,1,21.795,46.765ZM48,20V4h0V20h0Zm28,90.3a47.516,47.516,0,0,0,12.241-5.091l12.528,12.528,14.971-14.97,2,2-16.971,16.97L88.241,109.212A47.516,47.516,0,0,1,76,114.3v-4Z"/>
  <circle class="cls-8" cx="64" cy="64" r="16"/>
  <path id="Rounded_Rectangle_1" data-name="Rounded Rectangle 1" class="cls-9" d="M24,64h80c11.046,0,16,8.954,16,20v28l8,8v8H0v-8l8-8V84C8,72.954,12.954,64,24,64Z"/>
  <path id="Rounded_Rectangle_2" data-name="Rounded Rectangle 2" class="cls-10" d="M12,112H116l4,8H8Z"/>
  <path id="TAB" class="cls-11" d="M96,96c11.753,0.1,11.491,16,0,16H80V80H96C105.716,80,107.8,96,96,96Zm0,6s-8-4.5-8,0C88,106.651,96,102,96,102ZM88,90c0,4.651,8,0,8,0S88,85.5,88,90ZM68,104H60v8H52V96l8-16h8l8,16v16H68v-8ZM63.935,90.375L60,96h8ZM44,112H36V88H28V80H52v8H44v24Z"/>
  <path class="cls-12" d="M32,88h4v24H32V88ZM24,76H48v4H24V76Zm0,0h4V88H24V76Zm4,12h8v4H28V88Zm32,16h8v4H60v-4Zm4,0h4v8H64v-8ZM60,92h4v4H60V92Zm4,0h4v4H64V92ZM48,92h4v20H48V92Zm4-4h4v4H52V88Zm4-12H68v4H56V76Zm0,4h4v4H56V80Zm-4,4h4v4H52V84Zm24-8h4v36H76V76Zm4,0H96v4H80V76Zm8,12h4v4H88V88Zm0,12h4v4H88v-4Z"/>
  <path class="cls-13" d="M92,88h4v4H92V88Zm0,12h4v4H92v-4Zm8-20h4v4h-4V80Zm-4-4h4v4H96V76Zm4,20h4v4h-4V96ZM68,80h4v4H68V80Zm4,4h4v8H72V84ZM48,76h4v4H48V76ZM44,88h8v4H44V88Z"/>
</svg>
